<?xml version="1.0" encoding="utf-8"?>
<!-- Generator: Adobe Illustrator 28.1.0, SVG Export Plug-In . SVG Version: 6.00 Build 0)  -->
<svg version="1.1" id="Camada_1" xmlns="http://www.w3.org/2000/svg" xmlns:xlink="http://www.w3.org/1999/xlink" x="0px" y="0px"
	 viewBox="0 0 400 290" style="enable-background:new 0 0 400 290;" xml:space="preserve">
<style type="text/css">
	.st0{fill:#FBEBD7;}
</style>
<g>
	<path class="st0" d="M6.6,258.4c7.5-0.4,13.3-1.2,17.5-2.5c4.2-1.2,7.5-4.2,10-7.9s4.6-10,6.7-18.3L84.9,61.9
		c2.1-8.3,3.3-14.6,2.9-18.3c-0.4-3.7-2.1-6.7-5.8-7.9c-3.3-1.2-8.7-2.1-16.2-2.5L4.5,263h0.8L6.6,258.4z"/>
	<path class="st0" d="M151.5,27.8l-1.2,5c-7.5,0.4-13.3,1.2-17.5,2.5c-4.2,1.7-7.5,4.2-10,7.9c-2.5,3.7-4.6,10-7.1,18.3L71.6,229.3
		c-2.1,7.9-3.3,14.2-2.9,18.3c0.4,4.2,2.1,6.7,5.8,7.9c3.3,1.2,9.2,1.7,16.7,1.7h24.1c14.2,0,25-2.1,33.3-6.2
		c8.3-4.2,15.4-10.8,20.8-20c5.8-9.2,11.2-21.6,16.7-37.1h7.5c-1.2,3.7-2.5,7.9-4.2,12.5c-1.2,4.6-2.9,10-4.2,15.4
		c-1.2,4.2-2.5,10.4-4.2,18.3c-1.7,7.1-2.9,14.6-4.2,22.5h55.8c-5.4-3.3-9.6-8.3-12.5-14.2c-3.7-7.1-5.4-15.8-5.4-26.2
		c0-9.6,1.7-20.4,5.4-32.5c3.3-12.1,8.7-24.1,15-36.2c6.7-12.1,14.2-23.3,23.3-33.3c9.2-10,19.1-18.3,30.4-24.1
		c11.2-6.2,22.9-9.2,35.4-9.2c6.7,0,12.5,1.7,17.5,5.4c4.6,3.7,7.1,9.2,7.1,16.7c0,9.2-2.5,17.5-7.9,25c-5,7.9-12.1,15-20.4,21.2
		c-8.3,6.2-17.9,12.1-27.9,17.1c-10,5-19.6,9.2-29.1,12.9c-5,2.1-9.6,3.7-14.2,5c-2.5,10.8-3.7,21.6-3.7,32.9
		c0,11.7,2.1,19.6,6.2,25c4.2,5,9.6,7.5,16.7,7.5c7.9,0,16.2-2.5,25.4-7.5c8.7-5,17.5-13.7,25.8-26.2l5.4,2.5
		c-4.2,7.5-9.6,14.6-16.7,21.6c-6.7,6.7-14.2,12.1-22.1,16.7h45.4l63.7-234.8H151.5z"/>
	<path class="st0" d="M296.8,162.7c7.9-6.7,14.2-14.6,18.7-23.7c4.6-9.2,7.1-19.6,7.1-30.4c0-6.7-0.4-10.8-1.2-12.5
		c-0.8-1.7-2.1-2.5-4.2-2.5c-5.4,0-11.7,2.5-17.9,7.5c-6.2,5-12.9,11.7-18.7,20.4c-6.2,8.7-12.1,18.3-17.1,29.6
		c-5,10.4-8.7,21.6-12.1,33.3c7.5-2.9,14.6-5.4,21.2-8.3C282.6,171.8,291,167.3,296.8,162.7z"/>
</g>
</svg>
