<?xml version="1.0" encoding="utf-8"?>
<!-- Generator: Adobe Illustrator 28.1.0, SVG Export Plug-In . SVG Version: 6.00 Build 0)  -->
<svg version="1.1" id="Camada_1" xmlns="http://www.w3.org/2000/svg" xmlns:xlink="http://www.w3.org/1999/xlink" x="0px" y="0px"
	 viewBox="0 0 362 135" style="enable-background:new 0 0 362 135;" xml:space="preserve">
<style type="text/css">
	.st0{clip-path:url(#SVGID_00000117667574688902593220000009486292750041342087_);}
	.st1{fill:#422A20;}
</style>
<g>
	<g>
		<g>
			<defs>
				<rect id="SVGID_1_" width="362" height="135"/>
			</defs>
			<clipPath id="SVGID_00000111181086516099374110000017576708253505187229_">
				<use xlink:href="#SVGID_1_"  style="overflow:visible;"/>
			</clipPath>
			<g style="clip-path:url(#SVGID_00000111181086516099374110000017576708253505187229_);">
				<path class="st1" d="M143.9,23.2c0.4-4.9,0.1-8.7-0.9-11.5s-2.5-4.8-4.5-6S134.2,4,131.4,4h-0.3c-2,0-3.5,0.2-4.7,0.6
					c-1.1,0.4-2,1.2-2.7,2.4s-1.3,3.1-1.9,5.6l-13.5,51c-0.6,2.5-0.8,4.3-0.6,5.6c0.2,1.2,1,2.1,2.4,2.5s3.5,0.7,6.4,0.8l-0.4,2.1
					c-2.3-0.1-5.4-0.2-9.1-0.3c-3.7,0-7.5,0-11.3,0c-3.9,0-7.5,0-10.9,0.1c-3.4,0-6.1,0.1-8.2,0.3l0.4-2.1c2.3-0.1,4.1-0.4,5.4-0.8
					s2.3-1.2,3.1-2.5c0.8-1.2,1.4-3.1,2.1-5.6l13.5-51c0.7-2.5,1-4.4,0.8-5.6c-0.1-1.2-0.7-2-1.8-2.5c-1-0.6-2.7-0.9-5.1-1l0.5-2.1
					c2.9,0.1,6.1,0.1,9.4,0.2c3.4,0,6.7,0.1,10,0.1s6.4,0,9.2,0c2.8,0,5.1,0,7,0c3.1,0,6.7,0,10.6-0.1c3.9,0,7.5-0.1,10.7-0.3
					c-0.9,2.4-1.6,4.4-2.2,6.1c-0.5,1.7-1.1,3.7-1.7,6c-0.5,1.9-0.9,3.6-1.3,5.1c-0.4,1.6-0.8,3-1,4.3h-2.3L143.9,23.2L143.9,23.2z
					 M107.4,38.8l0.4-2.1h22l-0.4,2.1H107.4L107.4,38.8z M118.4,36.8c1.6,0,3.1-0.3,4.5-0.8s2.8-1.3,4-2.3c1.2-1,2.4-2.2,3.4-3.7
					c1.1-1.4,2-3,2.7-4.7h2.3c-0.9,2.7-1.6,4.9-2,6.6c-0.4,1.7-0.9,3.7-1.5,5.9c-0.5,2.1-1,4.4-1.5,6.8c-0.5,2.4-1.1,5.4-1.7,8.8
					h-2.3c0-2.4-0.2-4.5-0.6-6.3s-1-3.3-1.9-4.6c-0.8-1.3-1.8-2.2-3-2.8s-2.5-0.9-4-0.9L118.4,36.8L118.4,36.8z"/>
				<path class="st1" d="M154.7,52.8c2.2-1,4.3-2.3,6.5-3.7c2.1-1.4,4.1-3,5.9-4.7c2.7-2.7,5-5.7,6.7-9.2c1.7-3.4,2.6-7.1,2.6-11.1
					c0-1-0.1-1.6-0.4-2c-0.3-0.4-0.7-0.6-1.2-0.6c-1.4,0-2.9,0.8-4.5,2.3s-3.2,3.6-4.8,6.2s-3,5.5-4.3,8.7s-2.3,6.5-3.1,9.9
					s-1.2,6.7-1.2,9.8c0,4,0.8,6.6,2.4,8c1.6,1.3,3.6,2,6.2,2c1.4,0,3.4-0.5,6.2-1.5c2.7-1,5.5-2.9,8.2-5.7l1.6,0.8
					c-1.5,2.3-3.5,4.5-6,6.6s-5.4,3.9-8.7,5.2c-3.4,1.3-7.1,2-11.3,2c-3.2,0-6.2-0.5-8.9-1.6s-4.9-2.7-6.5-4.9
					c-1.6-2.2-2.4-4.8-2.4-8c0-4,0.6-8.1,1.9-12c1.3-4,3.1-7.7,5.4-11.3c2.3-3.6,5.1-6.7,8.4-9.5c3.2-2.8,6.9-5,10.8-6.5
					c4-1.6,8.2-2.4,12.7-2.4c3.6,0,6.7,0.7,9.1,2.2c2.4,1.5,3.6,3.8,3.6,6.8c0,2.6-0.7,5.1-2.1,7.4c-1.4,2.3-3.3,4.4-5.6,6.3
					c-2.4,1.9-5.1,3.6-8.1,5.1s-6.2,2.8-9.5,3.9c-3.3,1.1-6.6,2-9.8,2.6L154.7,52.8L154.7,52.8z"/>
				<path class="st1" d="M198.5,73c0.5,0.3,1.1,0.5,1.7,0.6c0.6,0.1,1.2,0.2,1.9,0.2c2.1,0,3.9-0.7,5.3-2.1c1.4-1.4,2.1-3.3,2.1-5.7
					c0-2.3-0.5-4.8-1.6-7.3s-2.5-5.2-4.3-8c-1.6-2.7-3.1-5.2-4.3-7.6c-1.2-2.4-1.9-5-1.9-7.9s0.8-5.6,2.3-7.9s3.8-4.2,6.8-5.6
					c3-1.4,6.8-2.1,11.4-2.1c2.9,0,5.7,0.3,8.4,1s4.9,1.9,6.7,3.5c1.7,1.7,2.6,4.1,2.6,7.2c0,1.4-0.3,2.8-0.8,4.2s-1.4,2.6-2.4,3.5
					c-1.1,0.9-2.4,1.4-4.1,1.4c-2.1,0-3.7-0.8-4.8-2.4c-1.2-1.6-1.7-3.7-1.7-6.2c0-2.2,0.4-4.1,1.1-5.9c0.7-1.7,1.5-3,2.2-3.8
					c-0.5-0.3-1.4-0.4-2.6-0.4c-2.4,0-4.2,0.7-5.4,2.1s-1.8,3.4-1.9,6c0,1.5,0.3,3,0.9,4.6c0.6,1.5,1.4,3.1,2.3,4.6
					c1,1.5,1.9,3.1,2.9,4.8c2.3,3.8,3.9,7,4.8,9.4c0.9,2.4,1.4,4.8,1.4,7.1c0,2.8-0.8,5.4-2.3,7.7c-1.5,2.3-3.8,4.2-6.9,5.6
					c-3,1.4-6.8,2.1-11.3,2.1c-3.2,0-6.3-0.4-9.2-1.2c-2.9-0.8-5.3-2.1-7.1-4.1c-1.8-1.9-2.7-4.6-2.7-7.9c0-2.5,0.6-4.7,1.9-6.5
					c1.3-1.8,3-2.7,5.1-2.7c2,0,3.6,0.8,4.8,2.5c1.2,1.6,1.9,3.8,1.9,6.6c0,2.2-0.4,4.2-1.1,6.1C199.5,70.5,198.9,71.9,198.5,73
					L198.5,73z"/>
				<path class="st1" d="M256.3,65.6c-0.4,1.4-0.4,2.5-0.1,3.2c0.4,0.7,1,1.1,1.9,1.1c1.4,0,2.7-0.8,4.1-2.3s2.5-3.4,3.3-5.6
					l1.6-4.4h2l-2,5.7c-1.3,3.9-3.4,7-6.2,9.2c-2.8,2.2-6.2,3.3-10.2,3.3c-3.4,0-6.1-0.8-7.9-2.4c-1.8-1.6-2.9-3.8-3.3-6.4
					c-0.3-2.7-0.1-5.6,0.8-8.8l15-52.3c3.8-0.1,7.1-0.2,10.1-0.4c2.9-0.2,5.8-0.5,8.6-1L256.3,65.6L256.3,65.6z M279.6,21l-0.3,2.1
					h-38.1l0.5-2.1H279.6L279.6,21z"/>
				<path class="st1" d="M320.5,74.4h-18.2l12.5-44.6c0.3-1.1,0.5-2,0.6-2.6s0-1.1-0.3-1.3c-0.2-0.3-0.7-0.4-1.3-0.4
					c-1,0-2,0.5-2.9,1.4s-1.8,2.6-2.8,5.1l-2.4,6.3h-2l2.9-8c1.3-3.6,3.1-6.3,5.3-8c2.3-1.7,5.2-2.6,8.7-2.6c2.7,0,4.8,0.4,6.4,1.3
					s2.7,2,3.4,3.4c0.7,1.4,1,3,1,4.7s-0.2,3.3-0.6,5L320.5,74.4L320.5,74.4z M322.8,59.6c2.8-8.4,5.4-15.2,7.7-20.4
					c2.4-5.2,4.7-9.3,6.9-12.2c2.2-2.9,4.5-4.9,6.9-5.9c2.4-1.1,4.9-1.6,7.6-1.6c3.4,0,5.9,0.7,7.5,2.1s2.4,3.2,2.5,5.6
					s-0.3,5-1.3,7.9l-10.2,30.5c-0.7,1.9-0.8,3.1-0.3,3.6s1,0.7,1.5,0.7c0.6,0,1.4-0.4,2.4-1.1s2-2.5,3.1-5.4l2.2-5.8h1.9l-2.6,7.5
					c-1,2.9-2.2,5.1-3.8,6.6c-1.6,1.5-3.4,2.6-5.2,3.1c-1.9,0.6-3.7,0.9-5.6,0.9c-2.1,0-4-0.3-5.5-0.9c-1.6-0.6-2.8-1.5-3.7-2.8
					c-1-1.4-1.6-3.2-1.7-5.4s0.4-5,1.6-8.6l8.8-26.6c0.4-1.2,0.7-2.3,0.8-3.1c0.1-0.8,0.1-1.4-0.1-1.9c-0.1-0.4-0.4-0.6-0.9-0.6
					c-1.1,0-2.4,0.9-3.9,2.8s-3.1,4.4-4.8,7.6c-1.7,3.2-3.4,6.9-5.1,11.1s-3.4,8.5-4.9,13.1c-1.6,4.6-2.9,9.1-4.1,13.6L322.8,59.6
					L322.8,59.6z"/>
				<path class="st1" d="M272.9,67.2c-5-1.3,4.6-4.6,9.3,8.1c-0.1-0.2-0.3-0.4-0.3-0.7c-0.1-0.6-0.2-1.1-0.1-1.7
					c0.1-1.8,0.7-3.5,1.4-5.1c1.8-4.5,4.4-8.7,7-12.8c2.7-4.2,5.7-8.2,8.5-12.3c2.1-3.1,4.9-7.7,3-11.5c-1.5-3-4.9-5.3-7.3-7.4
					c-1.8-1.5-3.8-3.3-6.1-4.2c-0.9-0.4,0.3,1.1,0.2,0.9c0.9,1.2,2.2,2.2,3.3,3.2c2.2,1.9,4.7,4.5,7.5,5.6c0.4,0.2-0.8-0.5-0.3-0.2
					c-0.7-0.4-9.4-7.6-9.2-7.8l0.4,0.7c0.6,1.4,0.4,3,0,4.3c-1.3,4.9-5.1,8.9-7.9,13s-5.7,8.5-8.2,12.9c-1.8,3.2-3.8,6.9-4.1,10.7
					c-0.1,2.1,0.7,3.4,2.1,4.9c2.3,2.4,4.8,4.5,7.5,6.4c1.3,0.9,2.7,2,4.2,2.4c0.8,0.2-0.2-0.9-0.2-0.9c-0.9-1.2-2.2-2.2-3.3-3.2
					c-1.5-1.3-3-2.6-4.6-3.7C275,68.4,273.9,67.4,272.9,67.2L272.9,67.2z"/>
				<path class="st1" d="M288.8,12.9c-0.2,0-0.3-0.1-0.5-0.2c2,1.4,4,2.9,6,4.3l-0.2-0.1c1.8,1.7,3.5,3.4,5.3,5.1
					c-0.7-1,1.1-3.2,1.7-3.9c1.4-1.9,3.1-3.4,4.4-5.3c1.6-2.2,0.1-3.4-1.5-5.1c-2.4-2.4-5.1-4.6-7.9-6.5c-0.6-0.4-1.4-1-2.1-1.2
					c-0.9-0.3,0.2,1,0.2,0.9c0.9,1.2,2.2,2.2,3.3,3.2c1.5,1.3,3,2.6,4.6,3.7c0.9,0.7,1.9,1.5,3,1.9c0.5,0.2,0.9,0.8-1.3-0.8
					c-1.9-1.5-3.9-3.1-5.8-4.6l0.1,0.1c-1.1-1.1-2.2-2.1-3.3-3.2c-0.6-0.7-0.1-0.2-0.2,0c-0.2,0.3-0.2,0.7-0.3,1
					c-0.5,0.9-1.3,1.7-2,2.4c-1.4,1.5-2.7,3.1-3.8,4.8c-0.7,1.2-1.2,2.3-0.4,3.5c1.5,2.2,4,3.9,6,5.6c1.6,1.3,3.6,3.2,5.7,3.8
					c0.8,0.2-0.2-0.9-0.2-0.9c-0.9-1.2-2.2-2.2-3.3-3.2c-1.5-1.3-3-2.6-4.6-3.7C290.9,14.1,289.9,13.1,288.8,12.9L288.8,12.9z"/>
				<path class="st1" d="M0.5,56.9c1.8-0.1,3.2-0.3,4.2-0.6s1.8-1,2.4-1.9S8.2,52,8.7,50L19.3,9.7c0.5-2,0.8-3.5,0.7-4.4
					c-0.1-0.9-0.5-1.6-1.4-1.9c-0.8-0.3-2.1-0.5-3.9-0.6L0,58h0.2L0.5,56.9z"/>
				<path class="st1" d="M35.3,1.5L35,2.7c-1.8,0.1-3.2,0.3-4.2,0.6c-1,0.4-1.8,1-2.4,1.9s-1.1,2.4-1.7,4.4L16.1,49.9
					c-0.5,1.9-0.8,3.4-0.7,4.4s0.5,1.6,1.4,1.9c0.8,0.3,2.2,0.4,4,0.4h5.8c3.4,0,6-0.5,8-1.5s3.7-2.6,5-4.8c1.4-2.2,2.7-5.2,4-8.9
					h1.8c-0.3,0.9-0.6,1.9-1,3c-0.3,1.1-0.7,2.4-1,3.7c-0.3,1-0.6,2.5-1,4.4c-0.4,1.7-0.7,3.5-1,5.4h13.4c-1.3-0.8-2.3-2-3-3.4
					c-0.9-1.7-1.3-3.8-1.3-6.3c0-2.3,0.4-4.9,1.3-7.8c0.8-2.9,2.1-5.8,3.6-8.7c1.6-2.9,3.4-5.6,5.6-8c2.2-2.4,4.6-4.4,7.3-5.8
					c2.7-1.5,5.5-2.2,8.5-2.2c1.6,0,3,0.4,4.2,1.3c1.1,0.9,1.7,2.2,1.7,4c0,2.2-0.6,4.2-1.9,6c-1.2,1.9-2.9,3.6-4.9,5.1
					s-4.3,2.9-6.7,4.1c-2.4,1.2-4.7,2.2-7,3.1c-1.2,0.5-2.3,0.9-3.4,1.2c-0.6,2.6-0.9,5.2-0.9,7.9c0,2.8,0.5,4.7,1.5,6
					c1,1.2,2.3,1.8,4,1.8c1.9,0,3.9-0.6,6.1-1.8c2.1-1.2,4.2-3.3,6.2-6.3l1.3,0.6c-1,1.8-2.3,3.5-4,5.2c-1.6,1.6-3.4,2.9-5.3,4h10.9
					L93.9,1.5H35.3z"/>
				<path class="st1" d="M70.2,33.9c1.9-1.6,3.4-3.5,4.5-5.7s1.7-4.7,1.7-7.3c0-1.6-0.1-2.6-0.3-3c-0.2-0.4-0.5-0.6-1-0.6
					c-1.3,0-2.8,0.6-4.3,1.8c-1.5,1.2-3.1,2.8-4.5,4.9c-1.5,2.1-2.9,4.4-4.1,7.1c-1.2,2.5-2.1,5.2-2.9,8c1.8-0.7,3.5-1.3,5.1-2
					C66.8,36.1,68.8,35,70.2,33.9z"/>
			</g>
		</g>
	</g>
</g>
</svg>
